<svg width="55" height="62" viewBox="0 0 55 62" fill="none" xmlns="http://www.w3.org/2000/svg">
<path d="M0 11.625C0 9.48164 1.75558 7.75 3.92857 7.75H51.0714C53.2444 7.75 55 9.48164 55 11.625C55 13.7684 53.2444 15.5 51.0714 15.5H3.92857C1.75558 15.5 0 13.7684 0 11.625ZM0 31C0 28.8566 1.75558 27.125 3.92857 27.125H51.0714C53.2444 27.125 55 28.8566 55 31C55 33.1434 53.2444 34.875 51.0714 34.875H3.92857C1.75558 34.875 0 33.1434 0 31ZM55 50.375C55 52.5184 53.2444 54.25 51.0714 54.25H3.92857C1.75558 54.25 0 52.5184 0 50.375C0 48.2316 1.75558 46.5 3.92857 46.5H51.0714C53.2444 46.5 55 48.2316 55 50.375Z" fill="#004AAD"/>
</svg>
