<svg width="81" height="81" viewBox="0 0 81 81" fill="none" xmlns="http://www.w3.org/2000/svg">
<path d="M11.9812 40.4998L36.7875 65.3061C37.6312 66.1498 38.0396 67.1342 38.0126 68.2592C37.9856 69.3842 37.5491 70.3686 36.7031 71.2123C35.8571 72.0561 34.8727 72.4779 33.75 72.4779C32.6272 72.4779 31.6429 72.0561 30.7969 71.2123L4.80936 45.3092C4.13436 44.6342 3.62811 43.8748 3.29061 43.0311C2.95311 42.1873 2.78436 41.3436 2.78436 40.4998C2.78436 39.6561 2.95311 38.8123 3.29061 37.9686C3.62811 37.1248 4.13436 36.3654 4.80936 35.6904L30.7969 9.70294C31.6406 8.85919 32.6396 8.45082 33.7939 8.47782C34.9481 8.50482 35.946 8.94132 36.7875 9.78732C37.629 10.6333 38.0509 11.6177 38.0531 12.7404C38.0554 13.8632 37.6335 14.8476 36.7875 15.6936L11.9812 40.4998Z" fill="#004AAD"/>
</svg>
